<svg xmlns="http://www.w3.org/2000/svg" xmlns:xlink="http://www.w3.org/1999/xlink" width="1080" zoomAndPan="magnify" viewBox="0 0 810 809.999993" height="1080" preserveAspectRatio="xMidYMid meet" version="1.0"><defs><clipPath id="d9edb9eecd"><path d="M 121.148438 123.214844 L 685 123.214844 L 685 686.464844 L 121.148438 686.464844 Z M 121.148438 123.214844 " clip-rule="nonzero"/></clipPath></defs><path fill="#d14b62" d="M 484.320312 400.492188 C 448.296875 280.429688 363.597656 175.996094 313.582031 128.25 C 248.726562 190.066406 125.765625 347.070312 125.765625 509.925781 C 125.765625 597.160156 206.085938 682.027344 313.492188 682.027344 C 366.636719 682.027344 413.253906 661.214844 446.6875 629.679688 C 445.167969 629.722656 443.691406 629.769531 442.171875 629.769531 Z M 484.320312 400.492188 " fill-opacity="1" fill-rule="nonzero"/><path fill="#c3ddda" d="M 552.929688 553.613281 L 604.867188 579.652344 C 609.765625 603.628906 601.046875 618.1875 580.777344 624.855469 L 524.371094 596.671875 C 522.738281 570.191406 532.570312 555.542969 552.929688 553.613281 Z M 552.929688 553.613281 " fill-opacity="1" fill-rule="nonzero"/><path fill="#d6eae8" d="M 199.246094 486.34375 C 190.261719 530.472656 191.46875 571.65625 210.0625 607.792969 C 180.207031 570.09375 167.289062 524.621094 171.355469 471.378906 C 179.804688 480.089844 188.921875 485.898438 199.246094 486.34375 Z M 199.246094 486.34375 " fill-opacity="1" fill-rule="nonzero"/><path fill="#c3ddda" d="M 194.777344 405.09375 C 204.609375 405.09375 212.609375 413.042969 212.609375 422.871094 C 212.609375 432.699219 204.609375 440.695312 194.777344 440.695312 C 184.941406 440.695312 176.988281 432.699219 176.988281 422.871094 C 176.988281 413.042969 184.941406 405.09375 194.777344 405.09375 Z M 194.777344 405.09375 " fill-opacity="1" fill-rule="nonzero"/><path fill="#c43b58" d="M 313.492188 128.160156 C 322.429688 186.226562 367.125 204.09375 416.292969 378.292969 C 465.460938 552.496094 423.710938 648.082031 423.710938 648.082031 C 423.710938 648.082031 423.757812 648.082031 423.757812 648.039062 C 471.359375 615.339844 501.214844 563.082031 501.214844 509.925781 C 501.214844 362.929688 398.414062 208.558594 313.492188 128.160156 Z M 313.492188 128.160156 " fill-opacity="1" fill-rule="nonzero"/><path fill="#087d99" d="M 484.320312 400.492188 C 528.972656 417.464844 560.753906 460.660156 560.753906 511.265625 C 560.753906 526.1875 557.980469 540.480469 552.929688 553.613281 C 546.671875 570.050781 536.839844 584.699219 524.371094 596.671875 C 504.078125 616.191406 476.8125 628.5625 446.6875 629.679688 C 445.167969 629.722656 443.691406 629.769531 442.171875 629.769531 C 376.648438 629.769531 323.546875 576.75 323.546875 511.265625 C 323.546875 445.832031 376.648438 392.765625 442.171875 392.765625 C 457.011719 392.765625 471.226562 395.492188 484.320312 400.492188 Z M 484.320312 400.492188 " fill-opacity="1" fill-rule="nonzero"/><path fill="#c3ddda" d="M 442.171875 423.09375 C 490.890625 423.09375 530.402344 462.582031 530.402344 511.265625 C 530.402344 560 490.890625 599.484375 442.171875 599.484375 C 393.410156 599.484375 353.898438 560 353.898438 511.265625 C 353.898438 462.582031 393.410156 423.09375 442.171875 423.09375 Z M 442.171875 423.09375 " fill-opacity="1" fill-rule="nonzero"/><path fill="#ef9d26" d="M 484.054688 466.914062 C 490.667969 469.460938 493.4375 475.757812 490.265625 480.984375 L 442.976562 558.570312 C 440.785156 562.144531 436.09375 564.511719 431.042969 564.511719 L 430.863281 564.511719 C 425.546875 564.421875 420.898438 561.917969 418.839844 558.121094 L 399.488281 522.523438 C 398.101562 519.933594 398.058594 517.074219 399.351562 514.484375 C 400.648438 511.847656 403.152344 509.792969 406.414062 508.675781 C 408.113281 508.097656 409.855469 507.828125 411.6875 507.828125 C 416.964844 507.828125 421.789062 510.328125 423.847656 514.214844 L 431.714844 528.6875 L 466.351562 471.828125 C 468.589844 468.207031 473.28125 465.886719 478.332031 465.886719 C 480.34375 465.886719 482.265625 466.242188 484.054688 466.914062 Z M 484.054688 466.914062 " fill-opacity="1" fill-rule="nonzero"/><path fill="#604533" d="M 604.867188 579.652344 C 587.035156 588.003906 579.035156 603.058594 580.777344 624.855469 L 655.734375 662.285156 L 678.886719 616.816406 Z M 604.867188 579.652344 " fill-opacity="1" fill-rule="nonzero"/><path fill="#472d1c" d="M 678.886719 616.816406 C 683.578125 636.871094 673.164062 657.597656 655.734375 662.285156 C 648.132812 647.859375 664.761719 616.816406 678.886719 616.816406 Z M 678.886719 616.816406 " fill-opacity="1" fill-rule="nonzero"/><path fill="#3a322b" d="M 349.5625 511.171875 C 349.5625 562.261719 391.15625 603.835938 442.285156 603.835938 C 493.414062 603.835938 535.007812 562.261719 535.007812 511.171875 C 535.007812 460.082031 493.40625 418.511719 442.285156 418.511719 C 391.160156 418.511719 349.5625 460.078125 349.5625 511.171875 Z M 526.066406 511.171875 C 526.066406 557.339844 488.484375 594.902344 442.285156 594.902344 C 396.085938 594.902344 358.5 557.339844 358.5 511.171875 C 358.5 465.003906 396.085938 427.445312 442.285156 427.445312 C 488.484375 427.445312 526.066406 465.003906 526.066406 511.171875 Z M 526.066406 511.171875 " fill-opacity="1" fill-rule="nonzero"/><path fill="#3a322b" d="M 427.917969 511.972656 C 425.066406 506.679688 418.738281 503.261719 411.796875 503.261719 C 409.484375 503.261719 407.238281 503.632812 405.113281 504.355469 C 400.738281 505.847656 397.320312 508.695312 395.488281 512.355469 C 393.527344 516.257812 393.613281 520.695312 395.703125 524.539062 L 415.046875 560.144531 C 417.882812 565.398438 423.972656 568.734375 430.9375 568.855469 C 430.960938 568.855469 431.132812 568.855469 431.160156 568.855469 C 437.742188 568.855469 443.925781 565.679688 446.914062 560.773438 L 494.195312 483.199219 C 496.28125 479.769531 496.730469 475.835938 495.460938 472.121094 C 494.019531 467.914062 490.5 464.464844 485.777344 462.65625 C 483.449219 461.773438 480.984375 461.320312 478.4375 461.320312 C 471.78125 461.320312 465.738281 464.410156 462.675781 469.40625 L 432.070312 519.625 Z M 435.667969 530.898438 L 470.304688 474.058594 C 472.285156 470.832031 478.199219 469.328125 482.585938 470.996094 C 484.8125 471.847656 486.417969 473.308594 487 475.003906 C 487.410156 476.203125 487.257812 477.394531 486.550781 478.546875 L 439.277344 556.125 C 437.894531 558.394531 434.632812 559.921875 431.160156 559.921875 L 431.054688 559.921875 C 427.445312 559.847656 424.175781 558.238281 422.914062 555.894531 L 403.558594 520.269531 C 402.855469 518.976562 402.832031 517.664062 403.484375 516.359375 C 404.261719 514.800781 405.871094 513.539062 408.011719 512.8125 C 412.484375 511.277344 418.285156 512.929688 420.054688 516.226562 L 427.925781 530.707031 C 428.691406 532.109375 430.144531 533.003906 431.746094 533.039062 C 433.378906 533.039062 434.835938 532.257812 435.667969 530.898438 Z M 435.667969 530.898438 " fill-opacity="1" fill-rule="nonzero"/><g clip-path="url(#d9edb9eecd)"><path fill="#3a322b" d="M 683.347656 615.675781 C 683.042969 614.386719 682.183594 613.300781 681 612.707031 L 558.585938 551.292969 C 562.941406 538.710938 565.34375 525.222656 565.34375 511.171875 C 565.34375 459.539062 533.320312 415.265625 488.09375 397.066406 C 453.574219 283.9375 374.402344 179.871094 316.777344 124.898438 C 315.050781 123.25 312.332031 123.25 310.601562 124.898438 C 294.867188 139.910156 239.769531 195.394531 191.613281 278.871094 C 145.042969 359.601562 121.425781 437.308594 121.425781 509.824219 C 121.425781 595.097656 198.652344 686.394531 313.621094 686.394531 C 364.304688 686.394531 412.078125 667.78125 448.542969 633.988281 C 478.003906 632.507812 504.769531 620.617188 525.222656 601.9375 L 653.875 666.179688 C 654.503906 666.492188 655.183594 666.648438 655.871094 666.648438 C 656.261719 666.648438 656.648438 666.597656 657.035156 666.5 C 676.882812 661.175781 688.6875 638.371094 683.347656 615.675781 Z M 649.554688 654.039062 L 585.285156 621.949219 C 584.496094 604.214844 590.988281 591.957031 605.070312 584.609375 L 668.152344 616.261719 C 664.222656 619.097656 660.429688 623.3125 657.167969 628.707031 C 652.984375 635.625 649.371094 645.238281 649.554688 654.039062 Z M 595.527344 579.820312 C 583.085938 588.257812 576.625 600.855469 576.230469 617.425781 L 531.921875 595.304688 C 541.667969 584.941406 549.644531 572.914062 555.351562 559.667969 Z M 556.402344 511.171875 C 556.402344 574.054688 505.207031 625.21875 442.285156 625.21875 C 379.355469 625.21875 328.164062 574.054688 328.164062 511.171875 C 328.164062 448.292969 379.359375 397.128906 442.285156 397.128906 C 505.207031 397.125 556.402344 448.292969 556.402344 511.171875 Z M 130.363281 509.824219 C 130.363281 435.839844 169.066406 274.046875 313.6875 134.328125 C 369.152344 188.21875 443.230469 286.339844 477.570312 393.375 C 466.382812 390.019531 454.542969 388.195312 442.285156 388.195312 C 374.429688 388.195312 319.226562 443.363281 319.226562 511.171875 C 319.226562 576.570312 370.570312 630.183594 435.082031 633.921875 C 401.324219 662.058594 358.6875 677.460938 313.621094 677.460938 C 203.996094 677.460938 130.363281 590.785156 130.363281 509.824219 Z M 658.738281 656.390625 C 657.765625 650.234375 659.992188 641.304688 664.820312 633.324219 C 668.035156 628.007812 671.933594 623.992188 675.398438 622.203125 C 677.035156 636.808594 670.113281 650.988281 658.738281 656.390625 Z M 658.738281 656.390625 " fill-opacity="1" fill-rule="nonzero"/></g><path fill="#3a322b" d="M 194.929688 400.523438 C 182.644531 400.523438 172.65625 410.507812 172.65625 422.78125 C 172.65625 435.054688 182.644531 445.039062 194.929688 445.039062 C 207.210938 445.039062 217.199219 435.054688 217.199219 422.78125 C 217.199219 410.507812 207.210938 400.523438 194.929688 400.523438 Z M 194.929688 436.109375 C 187.574219 436.109375 181.59375 430.132812 181.59375 422.785156 C 181.59375 415.4375 187.574219 409.460938 194.929688 409.460938 C 202.28125 409.460938 208.261719 415.4375 208.261719 422.785156 C 208.261719 430.132812 202.28125 436.109375 194.929688 436.109375 Z M 194.929688 436.109375 " fill-opacity="1" fill-rule="nonzero"/><path fill="#3a322b" d="M 203.738281 487.125 C 203.996094 485.84375 203.683594 484.515625 202.878906 483.488281 C 202.074219 482.460938 200.859375 481.832031 199.554688 481.773438 C 191.347656 481.410156 183.203125 476.96875 174.664062 468.1875 C 173.4375 466.921875 171.589844 466.503906 169.933594 467.101562 C 168.28125 467.699219 167.136719 469.214844 167.003906 470.960938 C 162.871094 525.078125 176.226562 572.019531 206.703125 610.476562 C 207.578125 611.582031 208.882812 612.167969 210.210938 612.167969 C 211.046875 612.167969 211.882812 611.9375 212.628906 611.460938 C 214.5625 610.214844 215.234375 607.703125 214.183594 605.660156 C 197.535156 573.300781 194.121094 534.523438 203.738281 487.125 Z M 192.941406 571.769531 C 179.992188 544.742188 174.109375 514.339844 175.386719 480.90625 C 181.550781 485.808594 187.730469 488.839844 194.050781 490.085938 C 188.359375 520.496094 187.972656 547.527344 192.941406 571.769531 Z M 192.941406 571.769531 " fill-opacity="1" fill-rule="nonzero"/></svg>