<svg xmlns="http://www.w3.org/2000/svg" xmlns:xlink="http://www.w3.org/1999/xlink" width="1080" zoomAndPan="magnify" viewBox="0 0 810 809.999993" height="1080" preserveAspectRatio="xMidYMid meet" version="1.0"><defs><clipPath id="c7fd2aef2b"><path d="M 122 70.703125 L 688 70.703125 L 688 738.953125 L 122 738.953125 Z M 122 70.703125 " clip-rule="nonzero"/></clipPath></defs><path fill="#c43b58" d="M 652.699219 452.558594 L 505.488281 452.558594 C 500.605469 452.558594 496.625 448.582031 496.625 443.703125 L 496.625 424.820312 C 496.625 413.789062 505.59375 404.828125 516.632812 404.828125 L 662.359375 404.828125 C 673.394531 404.828125 682.363281 413.789062 682.363281 424.820312 L 682.363281 443.703125 C 682.363281 448.582031 678.382812 452.558594 673.503906 452.558594 Z M 652.699219 452.558594 " fill-opacity="1" fill-rule="nonzero"/><path fill="#c3ddda" d="M 527.511719 680.613281 L 652.699219 680.613281 L 652.699219 714.449219 L 527.511719 714.449219 Z M 527.511719 680.613281 " fill-opacity="1" fill-rule="nonzero"/><path fill="#c43b58" d="M 527.511719 623.597656 L 652.699219 623.597656 L 652.699219 680.613281 L 527.511719 680.613281 Z M 527.511719 623.597656 " fill-opacity="1" fill-rule="nonzero"/><path fill="#c3ddda" d="M 652.699219 452.558594 L 652.699219 623.597656 L 527.511719 623.597656 L 527.511719 452.558594 Z M 632.746094 566 L 632.746094 533.226562 L 607.113281 533.226562 L 607.113281 507.609375 L 574.371094 507.609375 L 574.371094 533.226562 L 548.738281 533.226562 L 548.738281 566 L 574.371094 566 L 574.371094 591.566406 L 607.113281 591.566406 L 607.113281 566 Z M 632.746094 566 " fill-opacity="1" fill-rule="nonzero"/><path fill="#c43b58" d="M 538.390625 714.449219 L 641.765625 714.449219 L 641.765625 733.648438 L 538.390625 733.648438 Z M 538.390625 714.449219 " fill-opacity="1" fill-rule="nonzero"/><path fill="#4aaf8f" d="M 632.746094 533.226562 L 632.746094 566 L 607.113281 566 L 607.113281 591.566406 L 574.371094 591.566406 L 574.371094 566 L 548.738281 566 L 548.738281 533.226562 L 574.371094 533.226562 L 574.371094 507.609375 L 607.113281 507.609375 L 607.113281 533.226562 Z M 632.746094 533.226562 " fill-opacity="1" fill-rule="nonzero"/><path fill="#acccc6" d="M 598.09375 130.898438 L 632.746094 130.898438 L 632.746094 404.828125 L 598.09375 404.828125 Z M 598.09375 130.898438 " fill-opacity="1" fill-rule="nonzero"/><path fill="#c3ddda" d="M 527.511719 100.558594 L 598.09375 100.558594 L 598.09375 404.828125 L 527.511719 404.828125 Z M 527.511719 100.558594 " fill-opacity="1" fill-rule="nonzero"/><path fill="#acccc6" d="M 232.769531 659.078125 L 527.511719 659.078125 L 527.511719 689.414062 L 232.769531 689.414062 Z M 232.769531 659.078125 " fill-opacity="1" fill-rule="nonzero"/><path fill="#c3ddda" d="M 198.066406 634.523438 L 527.511719 634.523438 L 527.511719 659.078125 L 198.066406 659.078125 Z M 198.066406 634.523438 " fill-opacity="1" fill-rule="nonzero"/><path fill="#e7f2f1" d="M 527.511719 623.597656 L 527.511719 634.523438 L 127.484375 634.523438 L 127.484375 76.003906 L 527.511719 76.003906 L 527.511719 404.828125 L 516.632812 404.828125 C 505.59375 404.828125 496.625 413.789062 496.625 424.820312 L 496.625 443.703125 C 496.625 448.582031 500.605469 452.558594 505.488281 452.558594 L 527.511719 452.558594 Z M 510.050781 134.078125 C 510.050781 130.3125 509.523438 126.652344 508.566406 123.152344 C 504.796875 109.46875 494.132812 98.703125 480.546875 94.726562 C 476.882812 93.664062 473.0625 93.082031 469.03125 93.082031 C 465.210938 93.082031 461.546875 93.613281 458.097656 94.566406 C 444.460938 98.332031 433.632812 108.941406 429.652344 122.515625 C 428.59375 126.175781 428.007812 130.046875 428.007812 134.078125 C 428.007812 137.84375 428.539062 141.503906 429.496094 145.003906 C 433.261719 158.6875 443.929688 169.453125 457.515625 173.429688 C 461.175781 174.492188 464.996094 175.074219 469.03125 175.074219 C 472.851562 175.074219 476.511719 174.546875 479.960938 173.589844 C 493.652344 169.824219 504.425781 159.164062 508.40625 145.585938 C 509.46875 141.929688 510.050781 138.058594 510.050781 134.078125 Z M 476.671875 603.605469 L 476.671875 376.875 L 174.394531 376.875 L 174.394531 603.605469 Z M 327.496094 348.34375 C 368.308594 348.34375 401.421875 315.25 401.421875 274.464844 C 401.421875 233.679688 360.769531 141.664062 327.496094 119.175781 C 301.335938 141.132812 253.574219 233.679688 253.574219 274.464844 C 253.574219 315.25 286.636719 348.34375 327.496094 348.34375 Z M 327.496094 348.34375 " fill-opacity="1" fill-rule="nonzero"/><path fill="#c3ddda" d="M 508.566406 123.152344 C 509.523438 126.652344 510.050781 130.3125 510.050781 134.078125 C 510.050781 138.058594 509.46875 141.929688 508.40625 145.585938 L 479.960938 145.585938 L 479.960938 173.589844 C 476.511719 174.546875 472.851562 175.074219 469.03125 175.074219 C 464.996094 175.074219 461.175781 174.492188 457.515625 173.429688 L 457.515625 145.003906 L 429.496094 145.003906 C 428.539062 141.503906 428.007812 137.84375 428.007812 134.078125 C 428.007812 130.046875 428.59375 126.175781 429.652344 122.515625 L 458.097656 122.515625 L 458.097656 94.566406 C 461.546875 93.613281 465.210938 93.082031 469.03125 93.082031 C 473.0625 93.082031 476.882812 93.664062 480.546875 94.726562 L 480.546875 123.152344 Z M 508.566406 123.152344 " fill-opacity="1" fill-rule="nonzero"/><path fill="#3fa07f" d="M 508.566406 123.152344 L 480.546875 123.152344 L 480.546875 94.726562 C 494.132812 98.703125 504.796875 109.46875 508.566406 123.152344 Z M 508.566406 123.152344 " fill-opacity="1" fill-rule="nonzero"/><path fill="#3fa07f" d="M 479.960938 145.585938 L 508.40625 145.585938 C 504.425781 159.164062 493.652344 169.824219 479.960938 173.589844 Z M 479.960938 145.585938 " fill-opacity="1" fill-rule="nonzero"/><path fill="#d6eae8" d="M 231.285156 567.222656 L 476.671875 567.222656 L 476.671875 603.605469 L 231.285156 603.605469 Z M 231.285156 567.222656 " fill-opacity="1" fill-rule="nonzero"/><path fill="#c3ddda" d="M 231.285156 520.496094 L 476.671875 520.496094 L 476.671875 567.222656 L 231.285156 567.222656 Z M 231.285156 520.496094 " fill-opacity="1" fill-rule="nonzero"/><path fill="#d6eae8" d="M 231.285156 473.773438 L 476.671875 473.773438 L 476.671875 520.496094 L 231.285156 520.496094 Z M 231.285156 473.773438 " fill-opacity="1" fill-rule="nonzero"/><path fill="#c3ddda" d="M 231.285156 427.046875 L 476.671875 427.046875 L 476.671875 473.773438 L 231.285156 473.773438 Z M 231.285156 427.046875 " fill-opacity="1" fill-rule="nonzero"/><path fill="#d6eae8" d="M 231.285156 376.875 L 476.671875 376.875 L 476.671875 427.046875 L 231.285156 427.046875 Z M 231.285156 376.875 " fill-opacity="1" fill-rule="nonzero"/><path fill="#3fa07f" d="M 458.097656 94.566406 L 458.097656 122.515625 L 429.652344 122.515625 C 433.632812 108.941406 444.460938 98.332031 458.097656 94.566406 Z M 458.097656 94.566406 " fill-opacity="1" fill-rule="nonzero"/><path fill="#3fa07f" d="M 457.515625 145.003906 L 457.515625 173.429688 C 443.929688 169.453125 433.261719 158.6875 429.496094 145.003906 Z M 457.515625 145.003906 " fill-opacity="1" fill-rule="nonzero"/><path fill="#c43b58" d="M 401.421875 274.464844 C 401.421875 315.25 368.308594 348.34375 327.496094 348.34375 C 286.636719 348.34375 253.574219 315.25 253.574219 274.464844 C 253.574219 233.679688 301.335938 141.132812 327.496094 119.175781 C 360.769531 141.664062 401.421875 233.679688 401.421875 274.464844 Z M 361.78125 217.664062 C 364.328125 212.359375 362.097656 206.046875 356.84375 203.503906 C 355.359375 202.761719 353.820312 202.441406 352.226562 202.441406 C 348.195312 202.441406 344.425781 204.777344 342.675781 208.433594 L 314.921875 265.765625 L 308.660156 251.128906 C 306.960938 247.257812 303.140625 244.710938 298.894531 244.710938 C 297.460938 244.710938 296.027344 245.03125 294.703125 245.613281 C 292.101562 246.726562 290.085938 248.796875 289.023438 251.394531 C 287.960938 254.046875 288.015625 256.910156 289.128906 259.507812 L 304.625 295.464844 C 306.269531 299.285156 309.984375 301.777344 314.285156 301.882812 L 314.390625 301.882812 C 318.421875 301.882812 322.191406 299.496094 323.941406 295.890625 Z M 361.78125 217.664062 " fill-opacity="1" fill-rule="nonzero"/><path fill="#ffc05a" d="M 356.84375 203.503906 C 362.097656 206.046875 364.328125 212.359375 361.78125 217.664062 L 323.941406 295.890625 C 322.191406 299.496094 318.421875 301.882812 314.390625 301.882812 L 314.285156 301.882812 C 309.984375 301.777344 306.269531 299.285156 304.625 295.464844 L 289.128906 259.507812 C 288.015625 256.910156 287.960938 254.046875 289.023438 251.394531 C 290.085938 248.796875 292.101562 246.726562 294.703125 245.613281 C 296.027344 245.03125 297.460938 244.710938 298.894531 244.710938 C 303.140625 244.710938 306.960938 247.257812 308.660156 251.128906 L 314.921875 265.765625 L 342.675781 208.433594 C 344.425781 204.777344 348.195312 202.441406 352.226562 202.441406 C 353.820312 202.441406 355.359375 202.761719 356.84375 203.503906 Z M 356.84375 203.503906 " fill-opacity="1" fill-rule="nonzero"/><path fill="#c3ddda" d="M 174.394531 567.222656 L 231.285156 567.222656 L 231.285156 603.605469 L 174.394531 603.605469 Z M 174.394531 567.222656 " fill-opacity="1" fill-rule="nonzero"/><path fill="#d6eae8" d="M 174.394531 520.496094 L 231.285156 520.496094 L 231.285156 567.222656 L 174.394531 567.222656 Z M 174.394531 520.496094 " fill-opacity="1" fill-rule="nonzero"/><path fill="#c3ddda" d="M 174.394531 473.773438 L 231.285156 473.773438 L 231.285156 520.496094 L 174.394531 520.496094 Z M 174.394531 473.773438 " fill-opacity="1" fill-rule="nonzero"/><path fill="#d6eae8" d="M 174.394531 427.046875 L 231.285156 427.046875 L 231.285156 473.773438 L 174.394531 473.773438 Z M 174.394531 427.046875 " fill-opacity="1" fill-rule="nonzero"/><path fill="#c3ddda" d="M 174.394531 376.875 L 231.285156 376.875 L 231.285156 427.046875 L 174.394531 427.046875 Z M 174.394531 376.875 " fill-opacity="1" fill-rule="nonzero"/><g clip-path="url(#c7fd2aef2b)"><path fill="#3a332b" d="M 662.359375 399.523438 L 638.058594 399.523438 L 638.058594 130.898438 C 638.058594 127.96875 635.6875 125.59375 632.75 125.59375 L 603.386719 125.59375 L 603.386719 100.582031 C 603.386719 97.652344 601.015625 95.277344 598.082031 95.277344 L 532.792969 95.277344 L 532.792969 76.003906 C 532.792969 73.078125 530.417969 70.703125 527.484375 70.703125 L 127.480469 70.703125 C 124.542969 70.703125 122.171875 73.078125 122.171875 76.003906 L 122.171875 634.519531 C 122.171875 637.445312 124.542969 639.820312 127.480469 639.820312 L 192.761719 639.820312 L 192.761719 659.09375 C 192.761719 662.023438 195.136719 664.398438 198.070312 664.398438 L 227.4375 664.398438 L 227.4375 689.40625 C 227.4375 692.332031 229.808594 694.707031 232.746094 694.707031 L 522.179688 694.707031 L 522.179688 714.425781 C 522.179688 717.355469 524.550781 719.730469 527.484375 719.730469 L 533.074219 719.730469 L 533.074219 733.648438 C 533.074219 736.574219 535.445312 738.953125 538.378906 738.953125 L 641.789062 738.953125 C 644.722656 738.953125 647.09375 736.574219 647.09375 733.648438 L 647.09375 719.730469 L 652.683594 719.730469 C 655.617188 719.730469 657.992188 717.355469 657.992188 714.425781 L 657.992188 457.863281 L 673.480469 457.863281 C 681.308594 457.863281 687.671875 451.496094 687.671875 443.679688 L 687.671875 424.820312 C 687.671875 410.871094 676.316406 399.523438 662.359375 399.523438 Z M 627.445312 136.199219 L 627.445312 399.523438 L 603.386719 399.523438 L 603.386719 136.199219 Z M 592.773438 105.886719 L 592.773438 399.523438 L 532.792969 399.523438 L 532.792969 105.886719 Z M 132.785156 81.308594 L 522.179688 81.308594 L 522.179688 399.523438 L 516.628906 399.523438 C 502.671875 399.523438 491.3125 410.871094 491.3125 424.820312 L 491.3125 443.679688 C 491.320312 451.496094 497.683594 457.863281 505.503906 457.863281 L 522.179688 457.863281 L 522.179688 629.214844 L 132.785156 629.214844 Z M 532.792969 628.898438 L 647.375 628.898438 L 647.375 675.308594 L 532.792969 675.308594 Z M 203.375 639.820312 L 522.179688 639.820312 L 522.179688 653.792969 L 203.375 653.792969 Z M 238.050781 684.101562 L 238.050781 664.398438 L 522.179688 664.398438 L 522.179688 684.101562 Z M 636.480469 728.34375 L 543.6875 728.34375 L 543.6875 719.730469 L 636.480469 719.730469 Z M 641.789062 709.125 L 532.792969 709.125 L 532.792969 685.914062 L 647.375 685.914062 L 647.375 709.125 Z M 647.375 618.289062 L 532.792969 618.289062 L 532.792969 457.863281 L 647.375 457.863281 Z M 677.058594 443.679688 C 677.058594 445.652344 675.449219 447.253906 673.480469 447.253906 L 505.503906 447.253906 C 503.535156 447.253906 501.925781 445.648438 501.925781 443.679688 L 501.925781 424.820312 C 501.925781 416.722656 508.519531 410.128906 516.628906 410.128906 L 662.359375 410.128906 C 670.460938 410.128906 677.058594 416.722656 677.058594 424.820312 Z M 677.058594 443.679688 " fill-opacity="1" fill-rule="nonzero"/></g><path fill="#3a332b" d="M 548.75 571.277344 L 569.058594 571.277344 L 569.058594 591.574219 C 569.058594 594.503906 571.429688 596.878906 574.367188 596.878906 L 607.136719 596.878906 C 610.070312 596.878906 612.441406 594.503906 612.441406 591.574219 L 612.441406 571.277344 L 632.75 571.277344 C 635.6875 571.277344 638.058594 568.902344 638.058594 565.976562 L 638.058594 533.226562 C 638.058594 530.296875 635.6875 527.921875 632.75 527.921875 L 612.441406 527.921875 L 612.441406 507.625 C 612.441406 504.699219 610.070312 502.320312 607.136719 502.320312 L 574.367188 502.320312 C 571.429688 502.320312 569.058594 504.699219 569.058594 507.625 L 569.058594 527.921875 L 548.75 527.921875 C 545.816406 527.921875 543.441406 530.296875 543.441406 533.226562 L 543.441406 565.976562 C 543.441406 568.90625 545.816406 571.277344 548.75 571.277344 Z M 554.054688 538.527344 L 574.367188 538.527344 C 577.300781 538.527344 579.671875 536.152344 579.671875 533.226562 L 579.671875 512.929688 L 601.828125 512.929688 L 601.828125 533.226562 C 601.828125 536.152344 604.199219 538.527344 607.136719 538.527344 L 627.445312 538.527344 L 627.445312 560.671875 L 607.136719 560.671875 C 604.199219 560.671875 601.828125 563.046875 601.828125 565.976562 L 601.828125 586.273438 L 579.671875 586.273438 L 579.671875 565.976562 C 579.671875 563.046875 577.300781 560.671875 574.367188 560.671875 L 554.054688 560.671875 Z M 554.054688 538.527344 " fill-opacity="1" fill-rule="nonzero"/><path fill="#3a332b" d="M 327.480469 353.648438 C 371.167969 353.648438 406.710938 318.128906 406.710938 274.46875 C 406.710938 231.765625 365.8125 138.683594 330.453125 114.800781 C 328.5 113.472656 325.882812 113.601562 324.074219 115.132812 C 295.945312 138.730469 248.261719 233.144531 248.261719 274.476562 C 248.257812 318.128906 283.796875 353.648438 327.480469 353.648438 Z M 327.828125 126.054688 C 358.828125 151.152344 396.09375 236.867188 396.09375 274.46875 C 396.09375 312.277344 365.3125 343.039062 327.476562 343.039062 C 289.644531 343.039062 258.863281 312.277344 258.863281 274.46875 C 258.871094 237.621094 301.378906 151.996094 327.828125 126.054688 Z M 327.828125 126.054688 " fill-opacity="1" fill-rule="nonzero"/><path fill="#3a332b" d="M 299.753906 297.546875 C 302.207031 303.257812 307.851562 307.039062 314.152344 307.175781 C 314.1875 307.175781 314.34375 307.175781 314.378906 307.175781 C 320.457031 307.175781 326.074219 303.644531 328.714844 298.1875 L 366.554688 219.953125 C 370.375 212.058594 367.050781 202.523438 359.125 198.699219 C 356.949219 197.652344 354.632812 197.121094 352.226562 197.121094 C 346.171875 197.121094 340.546875 200.648438 337.886719 206.113281 L 315.210938 252.992188 L 313.519531 249.058594 C 311.015625 243.207031 305.273438 239.429688 298.890625 239.429688 C 296.714844 239.429688 294.59375 239.863281 292.59375 240.722656 C 288.6875 242.40625 285.667969 245.507812 284.09375 249.457031 C 282.523438 253.414062 282.585938 257.738281 284.273438 261.625 Z M 293.957031 253.371094 C 294.484375 252.058594 295.488281 251.023438 296.789062 250.460938 C 299.398438 249.339844 302.640625 250.621094 303.761719 253.238281 L 310.058594 267.839844 C 310.875 269.75 312.738281 271 314.8125 271.042969 C 316.863281 271.089844 318.804688 269.917969 319.707031 268.046875 L 347.433594 210.726562 C 348.675781 208.167969 351.972656 207.015625 354.515625 208.242188 C 357.15625 209.515625 358.273438 212.699219 357 215.328125 L 319.15625 293.5625 C 318.273438 295.382812 316.402344 296.554688 314.378906 296.554688 L 314.332031 296.554688 C 312.175781 296.488281 310.332031 295.265625 309.503906 293.339844 L 294.015625 257.410156 C 293.453125 256.128906 293.433594 254.6875 293.957031 253.371094 Z M 293.957031 253.371094 " fill-opacity="1" fill-rule="nonzero"/><path fill="#3a332b" d="M 166.78125 113.703125 L 285.855469 113.703125 C 288.789062 113.703125 291.160156 111.328125 291.160156 108.398438 C 291.160156 105.472656 288.789062 103.09375 285.855469 103.09375 L 166.78125 103.09375 C 163.847656 103.09375 161.472656 105.472656 161.472656 108.398438 C 161.472656 111.328125 163.851562 113.703125 166.78125 113.703125 Z M 166.78125 113.703125 " fill-opacity="1" fill-rule="nonzero"/><path fill="#3a332b" d="M 291.160156 134.070312 C 291.160156 131.140625 288.789062 128.765625 285.855469 128.765625 L 166.78125 128.765625 C 163.847656 128.765625 161.472656 131.140625 161.472656 134.070312 C 161.472656 136.996094 163.847656 139.371094 166.78125 139.371094 L 285.855469 139.371094 C 288.785156 139.371094 291.160156 136.996094 291.160156 134.070312 Z M 291.160156 134.070312 " fill-opacity="1" fill-rule="nonzero"/><path fill="#3a332b" d="M 369.90625 113.703125 L 411.929688 113.703125 C 414.863281 113.703125 417.234375 111.328125 417.234375 108.398438 C 417.234375 105.472656 414.863281 103.09375 411.929688 103.09375 L 369.90625 103.09375 C 366.96875 103.09375 364.597656 105.472656 364.597656 108.398438 C 364.597656 111.328125 366.96875 113.703125 369.90625 113.703125 Z M 369.90625 113.703125 " fill-opacity="1" fill-rule="nonzero"/><path fill="#3a332b" d="M 369.90625 139.371094 L 411.929688 139.371094 C 414.863281 139.371094 417.234375 136.996094 417.234375 134.070312 C 417.234375 131.140625 414.863281 128.765625 411.929688 128.765625 L 369.90625 128.765625 C 366.96875 128.765625 364.597656 131.140625 364.597656 134.070312 C 364.597656 136.996094 366.96875 139.371094 369.90625 139.371094 Z M 369.90625 139.371094 " fill-opacity="1" fill-rule="nonzero"/><path fill="#3a332b" d="M 469.019531 180.375 C 494.566406 180.375 515.347656 159.601562 515.347656 134.070312 C 515.347656 108.535156 494.566406 87.761719 469.019531 87.761719 C 443.472656 87.761719 422.6875 108.535156 422.6875 134.070312 C 422.6875 159.601562 443.472656 180.375 469.019531 180.375 Z M 437.242188 150.292969 L 452.1875 150.292969 L 452.1875 165.535156 C 445.78125 162.097656 440.566406 156.761719 437.242188 150.292969 Z M 485.257812 165.820312 L 485.257812 150.890625 L 500.503906 150.890625 C 497.066406 157.292969 491.726562 162.507812 485.257812 165.820312 Z M 500.796875 117.839844 L 485.859375 117.839844 L 485.859375 102.601562 C 492.257812 106.035156 497.476562 111.375 500.796875 117.839844 Z M 475.246094 98.949219 L 475.246094 123.144531 C 475.246094 126.070312 477.617188 128.445312 480.550781 128.445312 L 504.25 128.445312 C 504.542969 130.28125 504.738281 132.148438 504.738281 134.070312 C 504.738281 136.195312 504.515625 138.261719 504.160156 140.289062 L 479.953125 140.289062 C 477.015625 140.289062 474.644531 142.664062 474.644531 145.59375 L 474.644531 169.277344 C 472.808594 169.570312 470.941406 169.765625 469.019531 169.765625 C 466.890625 169.765625 464.820312 169.542969 462.796875 169.1875 L 462.796875 144.992188 C 462.796875 142.066406 460.421875 139.691406 457.488281 139.691406 L 433.789062 139.691406 C 433.496094 137.855469 433.300781 135.988281 433.300781 134.070312 C 433.300781 131.941406 433.523438 129.875 433.878906 127.847656 L 458.09375 127.847656 C 461.027344 127.847656 463.398438 125.472656 463.398438 122.542969 L 463.398438 98.859375 C 465.234375 98.566406 467.105469 98.371094 469.023438 98.371094 C 471.148438 98.371094 473.222656 98.585938 475.246094 98.949219 Z M 452.785156 102.3125 L 452.785156 117.238281 L 437.535156 117.238281 C 440.96875 110.839844 446.3125 105.625 452.785156 102.3125 Z M 452.785156 102.3125 " fill-opacity="1" fill-rule="nonzero"/><path fill="#3a332b" d="M 476.699219 608.917969 C 479.632812 608.917969 482.003906 606.542969 482.003906 603.613281 L 482.003906 376.886719 C 482.003906 373.960938 479.632812 371.582031 476.699219 371.582031 L 174.410156 371.582031 C 171.476562 371.582031 169.105469 373.960938 169.105469 376.886719 L 169.105469 603.613281 C 169.105469 606.542969 171.476562 608.917969 174.410156 608.917969 Z M 236.609375 598.3125 L 236.609375 572.53125 L 471.386719 572.53125 L 471.386719 598.3125 Z M 236.609375 479.078125 L 471.386719 479.078125 L 471.386719 515.199219 L 236.609375 515.199219 Z M 225.996094 515.199219 L 179.714844 515.199219 L 179.714844 479.078125 L 225.996094 479.078125 Z M 471.390625 468.46875 L 236.609375 468.46875 L 236.609375 432.347656 L 471.386719 432.347656 L 471.386719 468.46875 Z M 225.996094 468.46875 L 179.714844 468.46875 L 179.714844 432.347656 L 225.996094 432.347656 Z M 179.71875 525.804688 L 226 525.804688 L 226 561.929688 L 179.71875 561.929688 Z M 236.609375 525.804688 L 471.386719 525.804688 L 471.386719 561.929688 L 236.609375 561.929688 Z M 471.390625 421.738281 L 236.609375 421.738281 L 236.609375 382.191406 L 471.386719 382.191406 L 471.386719 421.738281 Z M 225.996094 382.195312 L 225.996094 421.746094 L 179.714844 421.746094 L 179.714844 382.195312 Z M 179.71875 572.53125 L 226 572.53125 L 226 598.3125 L 179.71875 598.3125 Z M 179.71875 572.53125 " fill-opacity="1" fill-rule="nonzero"/></svg>