<svg xmlns="http://www.w3.org/2000/svg" xmlns:xlink="http://www.w3.org/1999/xlink" width="1080" zoomAndPan="magnify" viewBox="0 0 810 809.999993" height="1080" preserveAspectRatio="xMidYMid meet" version="1.0"><path fill="#feebea" d="M 406.046875 220.246094 L 409.851562 222.257812 L 496.050781 267.738281 L 499.859375 269.746094 L 495.835938 277.351562 L 492.03125 275.34375 L 405.832031 229.863281 L 402.023438 227.855469 Z M 580.132812 281.8125 L 587.386719 286.445312 L 585.066406 290.070312 L 574.476562 306.613281 C 574.421875 306.699219 574.402344 306.804688 574.425781 306.90625 C 574.449219 307.007812 574.511719 307.09375 574.597656 307.148438 L 591.253906 317.523438 L 594.910156 319.800781 L 590.355469 327.101562 L 586.699219 324.824219 L 569.953125 314.394531 C 569.886719 314.351562 569.816406 314.332031 569.746094 314.332031 C 569.617188 314.332031 569.492188 314.398438 569.417969 314.511719 L 557.375 333.324219 L 555.054688 336.949219 L 547.800781 332.316406 L 550.121094 328.691406 L 562.109375 309.96875 C 562.148438 309.910156 562.167969 309.835938 562.167969 309.761719 L 562.167969 309.757812 C 562.167969 309.625 562.097656 309.5 561.984375 309.429688 L 547.152344 300.191406 L 543.496094 297.914062 L 548.050781 290.613281 L 551.707031 292.890625 L 566.632812 302.1875 C 566.695312 302.226562 566.765625 302.246094 566.839844 302.246094 C 566.964844 302.246094 567.089844 302.183594 567.164062 302.066406 L 577.8125 285.433594 Z M 361.363281 267.71875 L 365.050781 269.941406 L 535.109375 372.527344 L 538.792969 374.75 L 534.34375 382.113281 L 530.65625 379.890625 L 360.601562 277.308594 L 356.914062 275.085938 Z M 328.933594 301.164062 L 332.621094 303.386719 L 502.675781 405.96875 L 506.363281 408.191406 L 501.910156 415.558594 L 498.226562 413.332031 L 328.167969 310.75 L 324.484375 308.527344 Z M 288.320312 335.246094 L 292.007812 337.46875 L 462.0625 440.054688 L 465.75 442.277344 L 461.300781 449.640625 L 457.613281 447.417969 L 287.554688 344.835938 L 283.871094 342.613281 Z M 245.949219 362.671875 L 249.632812 364.894531 L 419.691406 467.476562 L 423.375 469.699219 L 418.925781 477.0625 L 415.242188 474.839844 L 245.183594 372.257812 L 241.5 370.035156 Z M 303.058594 456.019531 L 306.65625 458.382812 L 370.574219 500.351562 L 374.171875 502.714844 L 369.445312 509.902344 L 365.847656 507.539062 L 301.929688 465.570312 L 298.332031 463.207031 Z M 395.769531 155.636719 C 395.632812 155.636719 395.507812 155.707031 395.4375 155.820312 C 378.042969 184.066406 360.242188 212.589844 335.664062 242.289062 C 310.085938 273.203125 277.0625 305.535156 241.433594 327.445312 C 208.449219 347.734375 173.414062 358.960938 138.714844 369.386719 C 138.53125 369.445312 138.414062 369.625 138.441406 369.816406 C 138.460938 369.941406 138.539062 370.046875 138.644531 370.101562 L 138.636719 370.101562 L 357.722656 551.808594 C 357.792969 551.867188 357.882812 551.898438 357.96875 551.898438 C 358.027344 551.898438 358.082031 551.886719 358.136719 551.863281 L 358.140625 551.859375 L 358.136719 551.859375 C 388.351562 537.53125 418.53125 522.96875 455.847656 496.535156 C 494.386719 469.230469 540.414062 429.34375 571.503906 390.476562 C 601.441406 353.046875 617.636719 316.425781 633.542969 279.371094 L 633.53125 279.371094 C 633.578125 279.320312 633.609375 279.257812 633.621094 279.1875 C 633.652344 279.023438 633.578125 278.859375 633.433594 278.777344 L 564.394531 239.636719 L 564.257812 239.589844 L 564.25 239.585938 C 564.230469 239.585938 564.210938 239.582031 564.191406 239.582031 C 564.097656 239.582031 564.003906 239.617188 563.933594 239.679688 C 562.308594 241.105469 560.566406 242.378906 558.714844 243.472656 C 554.8125 245.769531 550.234375 246.75 545.910156 246.75 C 544.355469 246.75 542.804688 246.625 541.296875 246.375 C 532.589844 244.945312 524.34375 241.726562 516.6875 238.570312 C 503.945312 233.316406 491.578125 227.0625 479.800781 219.902344 C 474.761719 216.839844 469.699219 213.554688 464.933594 209.800781 C 463.082031 208.34375 461.179688 206.761719 459.390625 204.992188 C 458.058594 203.671875 456.035156 201.101562 455.679688 200.648438 L 455.671875 200.648438 C 455.660156 200.625 455.644531 200.601562 455.628906 200.582031 C 455.5 200.414062 455.382812 200.234375 455.277344 200.050781 L 455.265625 200.050781 C 455.246094 199.972656 455.210938 199.910156 455.195312 199.886719 L 455.1875 199.886719 C 454.925781 199.390625 453.597656 196.847656 453.121094 195.144531 C 451.992188 191.089844 452.292969 186.863281 453.21875 183.058594 L 453.210938 183.058594 C 453.238281 183.011719 453.253906 182.964844 453.261719 182.910156 C 453.285156 182.742188 453.195312 182.578125 453.042969 182.507812 L 395.941406 155.671875 L 395.777344 155.636719 Z M 395.769531 155.636719 " fill-opacity="1" fill-rule="nonzero"/><path fill="#cd2d2d" d="M 576.433594 221.394531 C 576.265625 221.394531 576.113281 221.5 576.054688 221.65625 C 574.59375 225.503906 572.648438 229.21875 570.261719 232.585938 C 570.175781 232.707031 570.164062 232.871094 570.234375 233.007812 C 570.285156 233.105469 570.375 233.179688 570.476562 233.210938 L 570.46875 233.210938 L 641.316406 273.378906 C 643.214844 274.453125 644 276.785156 643.140625 278.789062 L 643.070312 278.949219 L 642.921875 279.292969 C 626.539062 317.503906 609.890625 356.230469 578.214844 395.835938 C 546.480469 435.511719 499.789062 475.925781 460.816406 503.535156 C 421.753906 531.210938 390.328125 546.105469 359.167969 560.871094 C 359.144531 560.882812 359.140625 560.886719 359.140625 560.886719 C 359.136719 560.886719 359.128906 560.890625 359.113281 560.898438 C 358.527344 561.175781 357.902344 561.3125 357.277344 561.3125 C 356.296875 561.3125 355.324219 560.972656 354.539062 560.324219 L 172.1875 409.085938 C 172.144531 409.046875 172.09375 409.019531 172.039062 409.003906 C 172 408.996094 171.964844 408.988281 171.925781 408.988281 C 171.789062 408.988281 171.65625 409.058594 171.578125 409.183594 L 171.296875 409.636719 C 155.363281 435.332031 139.621094 460.730469 130.515625 479.0625 L 130.511719 479.085938 L 130.503906 479.085938 C 130.398438 479.304688 130.296875 479.503906 130.191406 479.722656 C 130.027344 480.054688 130.035156 480.035156 129.871094 480.363281 C 122.605469 494.992188 119.101562 504.929688 172.761719 539.804688 C 228.082031 575.765625 341.515625 636.339844 395.90625 662.28125 C 411.921875 669.921875 422.117188 674.1875 429.753906 675.117188 C 430.769531 675.242188 431.746094 675.308594 432.695312 675.308594 C 442.082031 675.308594 448.265625 668.808594 460.410156 648.859375 L 460.410156 648.855469 L 460.414062 648.851562 C 463.019531 644.570312 465.867188 639.738281 469.046875 634.339844 L 469.050781 634.332031 L 469.054688 634.328125 C 473.058594 627.53125 477.582031 619.851562 482.835938 611.226562 L 483.230469 610.570312 L 483.238281 610.5625 L 483.238281 610.558594 C 504.980469 574.894531 538.734375 523.644531 571.914062 473.273438 L 571.941406 473.230469 C 604.1875 424.273438 635.882812 376.152344 655.660156 343.703125 C 664.824219 328.671875 671.371094 317.101562 675.78125 308.058594 C 687.875 283.277344 683.570312 279.757812 673.484375 274.84375 C 673.128906 274.671875 672.730469 274.480469 672.367188 274.304688 C 672.003906 274.128906 671.542969 273.90625 671.167969 273.722656 C 670.484375 273.390625 669.832031 273.078125 669.105469 272.726562 C 669.105469 272.726562 669.0625 272.707031 669.050781 272.699219 L 669 272.675781 C 668.261719 272.320312 667.578125 271.988281 666.804688 271.613281 C 645.042969 261.011719 610.835938 241.238281 576.648438 221.449219 C 576.585938 221.414062 576.515625 221.394531 576.445312 221.394531 Z M 576.433594 221.394531 " fill-opacity="1" fill-rule="nonzero"/><path fill="#cd2d2d" d="M 229.214844 324.050781 L 229.261719 324.066406 L 229.351562 324.15625 L 229.214844 324.058594 Z M 387.929688 135.027344 C 381.230469 135.027344 374.921875 140.8125 352.742188 168.074219 C 326.164062 200.734375 278.375 261.476562 229.207031 324.042969 C 229.183594 324.070312 229.167969 324.113281 229.167969 324.15625 C 229.167969 324.183594 229.175781 324.207031 229.1875 324.234375 C 229.203125 324.265625 229.230469 324.292969 229.261719 324.3125 L 229.253906 324.3125 C 229.265625 324.320312 229.277344 324.324219 229.289062 324.328125 C 229.308594 324.335938 229.328125 324.339844 229.347656 324.339844 C 229.378906 324.339844 229.414062 324.328125 229.441406 324.3125 C 231.910156 322.90625 234.367188 321.453125 236.8125 319.949219 C 271.339844 298.714844 303.660156 267.152344 328.871094 236.683594 C 354.039062 206.265625 372.003906 177.082031 390.128906 147.636719 C 390.972656 146.261719 392.449219 145.488281 393.972656 145.488281 C 394.617188 145.488281 395.269531 145.628906 395.890625 145.917969 L 456.160156 174.246094 C 456.1875 174.257812 456.210938 174.261719 456.238281 174.261719 C 456.273438 174.261719 456.308594 174.253906 456.335938 174.234375 C 456.367188 174.214844 456.386719 174.191406 456.402344 174.160156 C 457.824219 171.390625 459.550781 168.683594 461.535156 166.140625 L 461.527344 166.140625 C 461.574219 166.113281 461.609375 166.066406 461.617188 166.011719 C 461.628906 165.929688 461.585938 165.855469 461.515625 165.820312 L 461.480469 165.804688 C 435.632812 153.351562 410.761719 141.492188 396.21875 136.773438 C 394.171875 136.109375 392.464844 135.632812 390.945312 135.347656 L 390.9375 135.347656 C 390.929688 135.34375 390.917969 135.34375 390.90625 135.339844 C 389.878906 135.148438 388.902344 135.027344 387.929688 135.027344 Z M 387.929688 135.027344 " fill-opacity="1" fill-rule="nonzero"/><path fill="#feebea" d="M 491.316406 158.492188 C 489.617188 158.492188 488.003906 158.671875 486.472656 159.070312 C 476.265625 161.71875 466.867188 171.34375 462.824219 181.761719 C 461.308594 185.664062 460.707031 189.644531 461.585938 192.785156 C 461.765625 193.433594 462.496094 194.890625 462.820312 195.523438 C 462.835938 195.558594 462.867188 195.589844 462.902344 195.609375 L 462.894531 195.609375 C 463.5 196.375 464.816406 198.007812 465.574219 198.753906 C 467.023438 200.1875 468.636719 201.542969 470.371094 202.90625 C 474.738281 206.347656 479.464844 209.425781 484.367188 212.40625 C 495.75 219.324219 507.71875 225.378906 520.039062 230.457031 C 527.691406 233.613281 535.113281 236.464844 542.726562 237.71875 L 542.761719 237.722656 L 542.753906 237.722656 C 543.773438 237.886719 544.835938 237.976562 545.910156 237.976562 C 548.992188 237.976562 551.957031 237.265625 554.253906 235.910156 C 563.335938 230.5625 569.609375 218.496094 570.398438 207.296875 C 570.691406 203.117188 570.054688 199.082031 568.25 196.296875 C 563.617188 189.152344 555.726562 184.347656 546.820312 179.570312 C 545.800781 179.023438 544.792969 178.492188 543.765625 177.945312 L 543.757812 177.941406 C 542.722656 177.394531 541.761719 176.886719 540.730469 176.332031 C 530.21875 170.699219 519.328125 165.785156 508.105469 162.132812 C 502.207031 160.210938 496.589844 158.492188 491.316406 158.492188 Z M 491.316406 158.492188 " fill-opacity="1" fill-rule="nonzero"/><path fill="#000000" d="M 454.886719 200.152344 C 454.980469 200.328125 453.308594 197.25 452.75 195.253906 C 451.113281 189.398438 452.417969 183.21875 454.269531 178.449219 C 459.132812 165.921875 470.5 153.746094 484.167969 150.199219 C 486.5625 149.578125 488.960938 149.328125 491.316406 149.328125 C 498.273438 149.328125 505.253906 151.566406 510.949219 153.417969 C 522.800781 157.277344 534.199219 162.429688 545.070312 168.257812 C 546.050781 168.785156 547.042969 169.308594 548.054688 169.847656 C 549.078125 170.386719 550.113281 170.9375 551.160156 171.496094 C 559.953125 176.210938 569.886719 181.960938 575.949219 191.316406 C 579.273438 196.441406 579.914062 202.761719 579.550781 207.941406 C 578.601562 221.40625 571.179688 236.585938 558.914062 243.808594 C 554.9375 246.148438 550.289062 247.140625 545.910156 247.140625 C 544.332031 247.140625 542.761719 247.015625 541.234375 246.761719 C 532.480469 245.324219 524.195312 242.089844 516.539062 238.933594 C 503.78125 233.671875 491.390625 227.40625 479.597656 220.238281 C 474.554688 217.171875 469.476562 213.875 464.691406 210.109375 C 462.835938 208.648438 460.921875 207.054688 459.117188 205.269531 C 457.609375 203.777344 455.253906 200.730469 455.324219 200.824219 C 455.160156 200.613281 455.015625 200.390625 454.886719 200.152344 Z M 463.167969 195.734375 L 462.734375 195.066406 C 462.804688 195.15625 464.746094 197.640625 465.722656 198.605469 C 467.164062 200.035156 468.769531 201.378906 470.503906 202.742188 C 474.863281 206.171875 479.578125 209.246094 484.476562 212.226562 C 495.851562 219.140625 507.808594 225.1875 520.121094 230.261719 C 527.769531 233.417969 535.171875 236.261719 542.761719 237.507812 C 543.78125 237.675781 544.839844 237.765625 545.910156 237.765625 C 548.960938 237.765625 551.886719 237.058594 554.144531 235.730469 C 563.15625 230.425781 569.398438 218.429688 570.1875 207.28125 C 570.480469 203.125 569.839844 199.148438 568.070312 196.417969 C 563.472656 189.320312 555.628906 184.535156 546.71875 179.761719 C 545.703125 179.214844 544.683594 178.675781 543.660156 178.132812 C 542.644531 177.59375 541.644531 177.066406 540.628906 176.523438 C 530.128906 170.890625 519.246094 165.984375 508.039062 162.335938 C 502.136719 160.414062 496.550781 158.707031 491.316406 158.707031 C 489.632812 158.707031 488.039062 158.886719 486.527344 159.277344 C 476.402344 161.902344 467.046875 171.472656 463.023438 181.839844 C 461.515625 185.722656 460.929688 189.652344 461.789062 192.730469 C 462.007812 193.511719 463.074219 195.5625 463.167969 195.734375 Z M 463.167969 195.734375 " fill-opacity="1" fill-rule="nonzero"/><path fill="#000000" d="M 567.046875 230.804688 L 641.515625 273.027344 C 643.59375 274.203125 644.457031 276.753906 643.515625 278.949219 C 627.0625 317.324219 610.386719 356.265625 578.53125 396.09375 C 546.765625 435.808594 500.042969 476.246094 461.050781 503.871094 C 421.9375 531.582031 390.46875 546.488281 359.289062 561.265625 C 357.636719 562.050781 355.683594 561.804688 354.277344 560.640625 L 126.097656 371.386719 C 124.765625 370.285156 124.148438 368.535156 124.496094 366.84375 C 124.839844 365.148438 126.089844 363.78125 127.75 363.285156 C 165.324219 352.058594 202.234375 341.003906 236.714844 319.792969 C 271.21875 298.570312 303.527344 267.023438 328.730469 236.566406 C 353.890625 206.15625 371.847656 176.988281 389.972656 147.539062 C 391.222656 145.503906 393.804688 144.734375 395.96875 145.75 L 457.699219 174.761719 L 461.949219 176.757812 L 457.953125 185.246094 L 453.707031 183.25 L 391.972656 154.238281 L 397.96875 152.449219 C 379.863281 181.867188 361.597656 211.5625 335.964844 242.539062 C 310.371094 273.472656 277.3125 305.839844 241.636719 327.78125 C 205.941406 349.734375 167.855469 361.089844 130.4375 372.273438 L 132.089844 364.171875 L 360.273438 553.421875 L 355.265625 552.792969 C 386.386719 538.042969 417.222656 523.425781 455.621094 496.222656 C 494.140625 468.929688 540.140625 429.066406 571.199219 390.238281 C 602.167969 351.519531 618.414062 313.667969 634.886719 275.257812 L 636.882812 281.183594 L 562.414062 238.960938 L 558.332031 236.644531 L 562.964844 228.488281 Z M 567.046875 230.804688 " fill-opacity="1" fill-rule="nonzero"/><path fill="#000000" d="M 410.035156 221.914062 L 496.234375 267.394531 L 500.382812 269.585938 L 496 277.878906 L 491.847656 275.6875 L 405.652344 230.207031 L 401.5 228.015625 L 405.882812 219.722656 Z M 410.035156 221.914062 " fill-opacity="1" fill-rule="nonzero"/><path fill="#000000" d="M 585.394531 290.28125 L 557.703125 333.539062 L 555.175781 337.488281 L 547.265625 332.4375 L 549.792969 328.484375 L 577.484375 285.230469 L 580.015625 281.277344 L 587.921875 286.332031 Z M 585.394531 290.28125 " fill-opacity="1" fill-rule="nonzero"/><path fill="#000000" d="M 551.910156 292.5625 L 591.460938 317.195312 L 595.445312 319.675781 L 590.476562 327.636719 L 586.496094 325.15625 L 546.945312 300.519531 L 542.964844 298.039062 L 547.929688 290.082031 Z M 551.910156 292.5625 " fill-opacity="1" fill-rule="nonzero"/><path fill="#000000" d="M 365.25 269.613281 L 535.308594 372.195312 L 539.328125 374.621094 L 534.476562 382.648438 L 530.457031 380.226562 L 360.398438 277.640625 L 356.382812 275.21875 L 361.234375 267.1875 Z M 365.25 269.613281 " fill-opacity="1" fill-rule="nonzero"/><path fill="#000000" d="M 332.820312 303.058594 L 502.878906 405.640625 L 506.894531 408.0625 L 502.042969 416.09375 L 498.023438 413.667969 L 327.96875 311.085938 L 323.949219 308.660156 L 328.804688 300.632812 Z M 332.820312 303.058594 " fill-opacity="1" fill-rule="nonzero"/><path fill="#000000" d="M 292.207031 337.140625 L 462.265625 439.722656 L 466.285156 442.148438 L 461.429688 450.175781 L 457.414062 447.75 L 287.355469 345.167969 L 283.339844 342.746094 L 288.1875 334.714844 Z M 292.207031 337.140625 " fill-opacity="1" fill-rule="nonzero"/><path fill="#000000" d="M 249.835938 364.5625 L 419.894531 467.148438 L 423.910156 469.570312 L 419.058594 477.597656 L 415.039062 475.175781 L 244.984375 372.59375 L 240.964844 370.167969 L 245.816406 362.140625 Z M 249.835938 364.5625 " fill-opacity="1" fill-rule="nonzero"/><path fill="#000000" d="M 306.871094 458.0625 L 370.789062 500.03125 L 374.710938 502.605469 L 369.554688 510.441406 L 365.632812 507.867188 L 301.714844 465.898438 L 297.792969 463.324219 L 302.949219 455.484375 Z M 306.871094 458.0625 " fill-opacity="1" fill-rule="nonzero"/><path fill="#000000" d="M 579.476562 212.71875 L 579.929688 212.984375 C 614.660156 233.089844 649.082031 253.003906 670.742188 263.550781 C 671.5 263.921875 672.269531 264.292969 673.003906 264.648438 C 673.714844 264.988281 674.414062 265.324219 675.101562 265.660156 C 691.867188 273.828125 698.703125 281.5625 683.855469 311.992188 C 679.257812 321.410156 672.546875 333.257812 663.332031 348.375 C 643.453125 380.988281 611.648438 429.269531 579.445312 478.164062 C 546.214844 528.613281 512.546875 579.726562 490.902344 615.238281 L 490.507812 615.890625 C 485.296875 624.445312 480.789062 632.097656 476.789062 638.890625 C 473.613281 644.277344 470.730469 649.175781 468.082031 653.523438 C 455.179688 674.722656 446.222656 686.160156 428.667969 684.027344 C 419.296875 682.886719 407.730469 677.867188 392.039062 670.382812 C 337.445312 644.34375 223.628906 583.574219 167.863281 547.328125 C 112.054688 511.050781 111.460938 497.257812 122.472656 475.078125 C 131.835938 456.222656 147.917969 430.304688 163.804688 404.6875 L 166.277344 400.703125 L 174.257812 405.640625 L 171.785156 409.628906 C 155.796875 435.40625 140.003906 460.882812 130.882812 479.25 C 123.410156 494.292969 117.71875 503.546875 172.984375 539.464844 C 228.285156 575.410156 341.703125 635.980469 396.082031 661.917969 C 412.113281 669.5625 422.242188 673.796875 429.800781 674.714844 C 440.644531 676.035156 446.652344 670.683594 460.0625 648.652344 C 462.667969 644.371094 465.515625 639.539062 468.699219 634.132812 C 472.699219 627.34375 477.234375 619.640625 482.484375 611.015625 L 482.882812 610.363281 C 504.636719 574.675781 538.414062 523.394531 571.605469 473.007812 C 603.851562 424.046875 635.539062 375.9375 655.3125 343.496094 C 664.476562 328.464844 671.011719 316.90625 675.417969 307.882812 C 688.378906 281.316406 682.335938 279.617188 670.988281 274.089844 C 670.328125 273.769531 669.632812 273.433594 668.925781 273.09375 C 668.210938 272.746094 667.390625 272.355469 666.628906 271.980469 C 644.589844 261.246094 609.808594 241.117188 575.222656 221.097656 L 574.769531 220.835938 L 570.707031 218.484375 L 575.414062 210.367188 Z M 579.476562 212.71875 " fill-opacity="1" fill-rule="nonzero"/><path fill="#000000" d="M 465.703125 168.035156 C 438.328125 154.84375 411.496094 141.917969 396.160156 136.945312 C 394.101562 136.277344 392.386719 135.800781 390.875 135.515625 C 382.816406 134.015625 378.320312 136.917969 352.882812 168.183594 C 324.5 203.070312 271.925781 269.96875 219.308594 336.925781 L 216.410156 340.613281 L 209.027344 334.820312 L 211.925781 331.132812 C 264.515625 264.214844 317.152344 197.234375 345.601562 162.269531 C 369.25 133.199219 377.757812 123.53125 392.59375 126.296875 C 394.6875 126.6875 396.839844 127.304688 399.058594 128.023438 C 415.164062 133.25 442.738281 146.554688 469.78125 159.589844 L 474.007812 161.628906 L 469.929688 170.074219 Z M 465.703125 168.035156 " fill-opacity="1" fill-rule="nonzero"/></svg>